<?xml version="1.0" encoding="UTF-8" standalone="no"?>
<!-- Created with Inkscape (http://www.inkscape.org/) -->

<svg
   width="72.985001in"
   height="16.396999in"
   viewBox="0 0 1853.819 416.48382"
   version="1.1"
   id="svg5"
   xml:space="preserve"
   inkscape:version="1.2 (dc2aedaf03, 2022-05-15)"
   sodipodi:docname="arriva_logo_object.svg"
   inkscape:export-filename="..\..\Users\user\Desktop\arriva_logo_workshop.pdf"
   inkscape:export-xdpi="96"
   inkscape:export-ydpi="96"
   xmlns:inkscape="http://www.inkscape.org/namespaces/inkscape"
   xmlns:sodipodi="http://sodipodi.sourceforge.net/DTD/sodipodi-0.dtd"
   xmlns="http://www.w3.org/2000/svg"
   xmlns:svg="http://www.w3.org/2000/svg"><sodipodi:namedview
     id="namedview7"
     pagecolor="#ffffff"
     bordercolor="#000000"
     borderopacity="0.25"
     inkscape:showpageshadow="2"
     inkscape:pageopacity="0.0"
     inkscape:pagecheckerboard="0"
     inkscape:deskcolor="#d1d1d1"
     inkscape:document-units="in"
     showgrid="false"
     showguides="true"
     inkscape:zoom="0.26614233"
     inkscape:cx="1523.6208"
     inkscape:cy="1315.0858"
     inkscape:window-width="3840"
     inkscape:window-height="2066"
     inkscape:window-x="-11"
     inkscape:window-y="-11"
     inkscape:window-maximized="1"
     inkscape:current-layer="g7648" /><defs
     id="defs2"><rect
       x="622.37286"
       y="515.10156"
       width="149.7813"
       height="64.097099"
       id="rect68235" /><rect
       x="427.42471"
       y="476.24478"
       width="270.33698"
       height="130.51897"
       id="rect68229" /></defs><g
     inkscape:label="Layer 1"
     inkscape:groupmode="layer"
     id="layer1"
     transform="translate(-26.991978,-13.69555)"><g
       id="g9031"
       transform="matrix(17.985101,0,0,18.231185,-652.13592,-1496.4374)"><g
         aria-label="arriva"
         id="text236"
         style="font-size:22.0808px;font-family:'Lucida Handwriting';-inkscape-font-specification:'Lucida Handwriting';text-align:center;letter-spacing:1.32292px;text-anchor:middle;fill:#5c3df4;stroke:#3131ae;stroke-width:0.695459;stroke-linecap:round;stroke-linejoin:round"><g
           id="g7648"
           transform="matrix(0.72235426,0,0,0.72235426,35.938924,29.484253)"><path
             d="m 57.217678,90.078507 v -6.756724 q 0,-0.949475 -0.419535,-1.700222 -0.419536,-0.772828 -1.10404,-1.302767 -0.684505,-0.529939 -1.545656,-0.816989 -0.839071,-0.287051 -1.722303,-0.287051 h -8.081572 q -0.883232,0 -1.744383,0.287051 -0.861151,0.28705 -1.545656,0.816989 -0.662424,0.529939 -1.081959,1.302767 -0.419535,0.750747 -0.419535,1.700222 v 3.86414 q 0,0.949474 0.419535,1.722302 0.419535,0.750747 1.081959,1.280686 0.684505,0.529939 1.545656,0.81699 0.861151,0.28705 1.744383,0.28705 h 7.816603 q 0.662424,0 0.993636,-0.419535 0.353293,-0.419535 0.353293,-0.905313 0,-0.507858 -0.353293,-0.927393 -0.331212,-0.419535 -0.993636,-0.419535 h -7.816603 q -0.55202,0 -0.949474,-0.154566 -0.397455,-0.154566 -0.662424,-0.353293 -0.26497,-0.220808 -0.397455,-0.463697 -0.110404,-0.264969 -0.110404,-0.463696 v -3.86414 q 0,-0.198727 0.110404,-0.441616 0.132485,-0.242889 0.397455,-0.463697 0.264969,-0.220808 0.662424,-0.353293 0.397454,-0.154565 0.949474,-0.154565 h 8.081572 q 0.55202,0 0.949475,0.154565 0.397454,0.132485 0.662424,0.353293 0.264969,0.220808 0.375373,0.463697 0.132485,0.242889 0.132485,0.441616 v 6.756724 q 0,0.662424 0.419535,1.015717 0.419535,0.331212 0.905313,0.331212 0.507858,0 0.927394,-0.331212 0.419535,-0.353293 0.419535,-1.015717 z"
             style="font-style:italic;font-weight:bold;font-family:Phat;-inkscape-font-specification:'Phat Bold Italic';baseline-shift:baseline;fill:#2f2e96;fill-opacity:1;stroke:none"
             id="path420" /><path
             d="m 77.530094,83.321783 q 0,-0.949475 -0.419535,-1.700222 -0.419535,-0.772828 -1.10404,-1.302767 -0.684505,-0.529939 -1.545656,-0.816989 -0.839071,-0.287051 -1.722303,-0.287051 h -8.081572 q -0.883232,0 -1.744383,0.287051 -0.861151,0.28705 -1.545656,0.816989 -0.662424,0.529939 -1.081959,1.302767 -0.419535,0.750747 -0.419535,1.700222 v 6.867128 q 0,0.662424 0.419535,1.015717 0.419535,0.331212 0.905313,0.331212 0.507858,0 0.927393,-0.331212 0.419535,-0.353293 0.419535,-1.015717 v -6.867128 q 0,-0.198727 0.110404,-0.441616 0.132485,-0.242889 0.397455,-0.463697 0.264969,-0.220808 0.662424,-0.353293 0.397454,-0.154565 0.949474,-0.154565 h 8.081572 q 0.55202,0 0.949475,0.154565 0.397454,0.132485 0.662424,0.353293 0.264969,0.220808 0.375373,0.463697 0.132485,0.242889 0.132485,0.441616 0,0.662424 0.419535,1.015717 0.419536,0.331212 0.905313,0.331212 0.507859,0 0.927394,-0.331212 0.419535,-0.353293 0.419535,-1.015717 z"
             style="font-style:italic;font-weight:bold;font-family:Phat;-inkscape-font-specification:'Phat Bold Italic';baseline-shift:baseline;fill:#2e2d96;fill-opacity:1;stroke:none"
             id="path422" /><path
             d="m 97.84251,83.321783 q 0,-0.949475 -0.419535,-1.700222 -0.419535,-0.772828 -1.10404,-1.302767 -0.684505,-0.529939 -1.545656,-0.816989 -0.83907,-0.287051 -1.722302,-0.287051 h -8.081573 q -0.883232,0 -1.744383,0.287051 -0.861151,0.28705 -1.545656,0.816989 -0.662424,0.529939 -1.081959,1.302767 -0.419535,0.750747 -0.419535,1.700222 v 6.867128 q 0,0.662424 0.419535,1.015717 0.419535,0.331212 0.905313,0.331212 0.507858,0 0.927393,-0.331212 0.419535,-0.353293 0.419535,-1.015717 v -6.867128 q 0,-0.198727 0.110404,-0.441616 0.132485,-0.242889 0.397455,-0.463697 0.264969,-0.220808 0.662424,-0.353293 0.397454,-0.154565 0.949474,-0.154565 h 8.081573 q 0.55202,0 0.949474,0.154565 0.397454,0.132485 0.662424,0.353293 0.264969,0.220808 0.375373,0.463697 0.132485,0.242889 0.132485,0.441616 0,0.662424 0.419535,1.015717 0.419536,0.331212 0.905313,0.331212 0.507859,0 0.927394,-0.331212 0.419535,-0.353293 0.419535,-1.015717 z"
             style="font-style:italic;font-weight:bold;font-family:Phat;-inkscape-font-specification:'Phat Bold Italic';baseline-shift:baseline;fill:#2f2e96;fill-opacity:1;stroke:none"
             id="path424" /><path
             d="m 103.16206,90.100588 v -9.649309 c 0,-0.441616 -0.13984,-0.772828 -0.41953,-0.993636 -0.27969,-0.235529 -0.58883,-0.353293 -0.9274,-0.353293 -0.32385,0 -0.62562,0.117764 -0.90531,0.353293 -0.27969,0.220808 -0.41953,0.55202 -0.41953,0.993636 v 9.649309 c 0,0.441616 0.13984,0.780188 0.41953,1.015717 0.27969,0.220808 0.58146,0.331212 0.90531,0.331212 0.33857,0 0.64771,-0.110404 0.9274,-0.331212 0.27969,-0.235529 0.41953,-0.574101 0.41953,-1.015717 z"
             style="font-style:italic;font-weight:bold;font-family:Phat;-inkscape-font-specification:'Phat Bold Italic';baseline-shift:baseline;fill:#2f2e96;fill-opacity:1;stroke:none"
             id="path426"
             sodipodi:nodetypes="sscscsscscs" /><path
             d="m 143.67646,90.078507 v -6.756724 q 0,-0.949475 -0.41954,-1.700222 -0.41953,-0.772828 -1.10404,-1.302767 -0.6845,-0.529939 -1.54565,-0.816989 -0.83908,-0.287051 -1.72231,-0.287051 h -8.08157 q -0.88323,0 -1.74438,0.287051 -0.86115,0.28705 -1.54566,0.816989 -0.66242,0.529939 -1.08196,1.302767 -0.41953,0.750747 -0.41953,1.700222 v 3.86414 q 0,0.949474 0.41953,1.722302 0.41954,0.750747 1.08196,1.280686 0.68451,0.529939 1.54566,0.81699 0.86115,0.28705 1.74438,0.28705 h 7.8166 q 0.66243,0 0.99364,-0.419535 0.35329,-0.419535 0.35329,-0.905313 0,-0.507858 -0.35329,-0.927393 -0.33121,-0.419535 -0.99364,-0.419535 h -7.8166 q -0.55202,0 -0.94947,-0.154566 -0.39746,-0.154566 -0.66243,-0.353293 -0.26497,-0.220808 -0.39745,-0.463697 -0.11041,-0.264969 -0.11041,-0.463696 v -3.86414 q 0,-0.198727 0.11041,-0.441616 0.13248,-0.242889 0.39745,-0.463697 0.26497,-0.220808 0.66243,-0.353293 0.39745,-0.154565 0.94947,-0.154565 h 8.08157 q 0.55202,0 0.94948,0.154565 0.39745,0.132485 0.66242,0.353293 0.26497,0.220808 0.37537,0.463697 0.13249,0.242889 0.13249,0.441616 v 6.756724 q 0,0.662424 0.41953,1.015717 0.41954,0.331212 0.90532,0.331212 0.50786,0 0.92739,-0.331212 0.41954,-0.353293 0.41954,-1.015717 z"
             style="font-style:italic;font-weight:bold;font-family:Phat;-inkscape-font-specification:'Phat Bold Italic';baseline-shift:baseline;fill:#2f2e96;fill-opacity:1;stroke:none"
             id="path430" /><path
             d="m 103.97529,76.691797 v -0.374871 c 0,-0.535531 -0.21783,-0.93718 -0.65351,-1.204945 -0.43569,-0.285616 -0.91725,-0.428426 -1.44465,-0.428426 -0.50448,0 -0.97455,0.14281 -1.41024,0.428426 -0.43568,0.267765 -0.653514,0.669414 -0.653514,1.204945 v 0.374871 c 0,0.535531 0.217834,0.946106 0.653514,1.231722 0.43569,0.267766 0.90576,0.401649 1.41024,0.401649 0.5274,0 1.00896,-0.133883 1.44465,-0.401649 0.43568,-0.285616 0.65351,-0.696191 0.65351,-1.231722 z"
             style="font-style:italic;font-weight:bold;font-family:Phat;-inkscape-font-specification:'Phat Bold Italic';baseline-shift:baseline;fill:#2f2e96;fill-opacity:1;stroke:none;stroke-width:0.955847"
             id="path3957" /><path
             style="color:#000000;-inkscape-font-specification:'Lucida Handwriting';fill:#2f2e96;stroke:none"
             d="m 108.32227,79.296875 a 1.18727,1.18727 0 0 0 -0.88672,0.199219 1.18727,1.18727 0 0 0 -0.28711,1.654297 l 6.93945,9.861328 a 1.1873888,1.1873888 0 0 0 1.91992,0.0293 l 7.43164,-9.876954 a 1.18727,1.18727 0 0 0 -0.23632,-1.662109 1.18727,1.18727 0 0 0 -1.66211,0.236328 l -6.44922,8.572266 -6.00196,-8.527344 a 1.18727,1.18727 0 0 0 -0.76757,-0.486328 z"
             id="path4716" /></g><g
           id="rect7702"><path
             style="color:#000000;-inkscape-font-specification:'Lucida Handwriting';fill:#ff7a00;stroke:none;stroke-width:2.37913;-inkscape-stroke:none"
             d="m 41.849953,85.867386 h 10.29649 c 0.657184,0 1.186253,0.529069 1.186253,1.186253 v 7.6558 c 0,0.657184 -0.529069,1.186253 -1.186253,1.186253 h -10.29649 c -0.657184,0 -1.186253,-0.529069 -1.186253,-1.186253 v -7.6558 c 0,-0.657184 0.529069,-1.186253 1.186253,-1.186253 z"
             id="path322" /><path
             style="color:#000000;-inkscape-font-specification:'Lucida Handwriting';fill:#ff7900;stroke:none;-inkscape-stroke:none"
             d="m 41.849609,84.677734 c -1.295625,0 -2.375,1.079375 -2.375,2.375 v 7.65625 c 0,1.295626 1.079375,2.376953 2.375,2.376953 h 10.296875 c 1.295626,0 2.375,-1.081327 2.375,-2.376953 v -7.65625 c 0,-1.295625 -1.079374,-2.375 -2.375,-2.375 z m 0.0039,2.378907 h 10.289062 v 7.65039 H 41.853516 Z"
             id="path324" /></g><g
           id="rect8256"><path
             style="color:#000000;-inkscape-font-specification:'Lucida Handwriting';fill:#ff7a00;stroke:none;stroke-width:1.02092;-inkscape-stroke:none"
             d="m 57.66048,90.407516 h 3.591129 c 0.511143,0 0.922641,0.411498 0.922641,0.922642 v 2.457978 c 0,0.511143 -0.411498,0.922641 -0.922641,0.922641 H 57.66048 c -0.511143,0 -0.922641,-0.411498 -0.922641,-0.922641 v -2.457978 c 0,-0.511144 0.411498,-0.922642 0.922641,-0.922642 z"
             id="path328" /><path
             style="color:#000000;-inkscape-font-specification:'Lucida Handwriting';fill:#ff7900;stroke:none;-inkscape-stroke:none"
             d="m 57.660156,89.896484 c -0.785108,0 -1.433594,0.648486 -1.433594,1.433594 v 2.458984 c 0,0.785108 0.648486,1.431641 1.433594,1.431641 h 3.591797 c 0.785108,0 1.433594,-0.646533 1.433594,-1.431641 v -2.458984 c 0,-0.785108 -0.648486,-1.433594 -1.433594,-1.433594 z m 0,1.021485 h 3.591797 c 0.237178,0 0.412109,0.174931 0.412109,0.412109 v 2.458984 c 0,0.237178 -0.174931,0.41211 -0.412109,0.41211 h -3.591797 c -0.237177,0 -0.412109,-0.174932 -0.412109,-0.41211 v -2.458984 c 0,-0.237178 0.174932,-0.412109 0.412109,-0.412109 z"
             id="path330" /></g><g
           id="rect8258"><path
             style="color:#000000;-inkscape-font-specification:'Lucida Handwriting';fill:#ff008d;stroke:none;stroke-width:1.47342;-inkscape-stroke:none"
             d="m 58.152735,97.623825 h 5.713312 c 0.486804,0 0.878706,0.391903 0.878706,0.878706 v 4.765109 c 0,0.4868 -0.391902,0.87871 -0.878706,0.87871 h -5.713312 c -0.486803,0 -0.878706,-0.39191 -0.878706,-0.87871 v -4.765109 c 0,-0.486803 0.391903,-0.878706 0.878706,-0.878706 z"
             id="path334" /><path
             style="color:#000000;-inkscape-font-specification:'Lucida Handwriting';fill:#ff008a;stroke:none;-inkscape-stroke:none"
             d="m 58.152344,96.886719 c -0.882197,0 -1.615235,0.733038 -1.615235,1.615234 v 4.765627 c 0,0.88219 0.733038,1.61523 1.615235,1.61523 h 5.71289 c 0.882197,0 1.617188,-0.73304 1.617188,-1.61523 v -4.765627 c 0,-0.882196 -0.734991,-1.615234 -1.617188,-1.615234 z m 0,1.474609 h 5.71289 c 0.09141,0 0.142579,0.04922 0.142578,0.140625 v 4.765627 c 0,0.0914 -0.05117,0.14258 -0.142578,0.14258 h -5.71289 c -0.09141,0 -0.142578,-0.0512 -0.142578,-0.14258 v -4.765627 c 0,-0.09141 0.05117,-0.140625 0.142578,-0.140625 z"
             id="path336" /></g><g
           id="rect8964"><path
             style="color:#000000;-inkscape-font-specification:'Lucida Handwriting';fill:#ff008d;stroke:none;stroke-width:0.557462;-inkscape-stroke:none"
             d="m 52.030417,98.284256 h 2.42448 c 0.111364,0 0.201018,0.08965 0.201018,0.201018 v 2.065736 c 0,0.11136 -0.08965,0.20101 -0.201018,0.20101 h -2.42448 c -0.111364,0 -0.201018,-0.0897 -0.201018,-0.20101 v -2.065736 c 0,-0.111364 0.08965,-0.201018 0.201018,-0.201018 z"
             id="path340" /><path
             style="color:#000000;-inkscape-font-specification:'Lucida Handwriting';fill:#ff008a;stroke:none;-inkscape-stroke:none"
             d="m 52.03125,98.005859 c -0.260959,0 -0.480469,0.217557 -0.480469,0.478516 v 2.066405 c 0,0.26096 0.21951,0.48047 0.480469,0.48047 h 2.423828 c 0.26096,0 0.480469,-0.21951 0.480469,-0.48047 v -2.066405 c 0,-0.260959 -0.219509,-0.478516 -0.480469,-0.478516 z m 0.07617,0.556641 h 2.269531 v 1.91016 h -2.269531 z"
             id="path342" /></g></g></g><text
       xml:space="preserve"
       transform="scale(0.26458333)"
       id="text68233"
       style="font-style:italic;font-variant:normal;font-weight:bold;font-stretch:normal;font-size:24px;font-family:Arial;-inkscape-font-specification:'Arial Bold Italic';text-align:center;white-space:pre;shape-inside:url(#rect68235);display:inline;fill:#ff008d;fill-opacity:1;stroke:#ff008a;stroke-width:7.55906;stroke-linecap:round;stroke-linejoin:round;stroke-dasharray:none;stroke-opacity:1" /></g></svg>
